<svg width="160" height="34" viewBox="0 0 160 34" fill="none" xmlns="http://www.w3.org/2000/svg">
<path d="M38.039 13.292C38.3324 13.292 38.5143 13.4079 38.5849 13.6395C38.6624 13.8454 38.6762 14.0899 38.6261 14.3731C38.6027 14.6562 38.5394 14.9393 38.436 15.2224C38.3326 15.5056 38.2536 15.6986 38.1991 15.8015C38.1585 15.853 37.9659 16.0718 37.6212 16.4579C37.2836 16.8182 36.7755 17.2172 36.097 17.6547C35.4254 18.0665 34.5706 18.4655 33.5327 18.8516C32.5017 19.2119 31.2628 19.405 29.8158 19.4307C29.4601 20.7434 29.0708 22.0818 28.6479 23.4459C28.2586 24.7843 27.8338 26.3029 27.3735 28.0017C27.1155 28.954 26.646 29.7519 25.965 30.3954C25.3106 31.0388 24.6308 31.5793 23.9256 32.0169C23.0998 32.5059 22.2184 32.9049 21.2813 33.2137C21.1144 33.2395 20.9845 33.2266 20.8918 33.1751C20.7991 33.1237 20.7232 33.0593 20.6641 32.9821C20.598 32.9306 20.5929 32.8019 20.6487 32.596C20.6557 32.5703 20.7644 32.1198 20.9748 31.2447C21.205 30.3954 21.5118 29.2629 21.8954 27.8472C22.2859 26.4059 22.7154 24.7715 23.1839 22.944C23.686 21.0908 24.1852 19.199 24.6816 17.2686C25.2046 15.3383 25.7207 13.4336 26.2297 11.5547C26.7388 9.67575 27.1991 7.977 27.6105 6.45842C28.0556 4.9141 28.431 3.62717 28.7366 2.59762C29.0422 1.56807 29.2496 0.950345 29.3587 0.744437C29.4888 0.461311 29.6842 0.281141 29.9452 0.203926C30.2397 0.100971 30.7858 0.152448 31.5833 0.358358C32.1872 0.590004 32.6369 0.898868 32.9323 1.28495C33.2613 1.64529 33.4796 2.06998 33.5871 2.55901C33.6946 3.04805 33.718 3.60143 33.6573 4.21915C33.6302 4.81114 33.566 5.44174 33.4647 6.11095C33.4052 6.62572 33.2639 7.29492 33.0407 8.11856C32.8512 8.91646 32.6449 9.72723 32.4217 10.5509C32.2055 11.3488 31.9934 12.0823 31.7855 12.7515C31.5775 13.4207 31.4491 13.8454 31.4003 14.0256C32.3615 13.9226 33.2827 13.8197 34.1639 13.7167C34.9049 13.6395 35.6325 13.5623 36.3467 13.4851C37.0876 13.4079 37.6517 13.3435 38.039 13.292ZM9.15462 9.46984C11.0447 9.18671 12.5706 8.96793 13.7324 8.8135C14.921 8.65907 15.8457 8.54325 16.5066 8.46603C17.1675 8.38881 17.6215 8.33734 17.8684 8.3116C18.1421 8.28586 18.3189 8.27299 18.3989 8.27299C19.6001 8.17004 20.3374 8.40168 20.6106 8.96794C20.9105 9.53419 20.928 10.3063 20.663 11.2844C20.3631 12.3912 20.0813 13.3821 19.8175 14.2572C19.5874 15.1066 19.3074 15.9431 18.9776 16.7667C18.6814 17.5646 18.3115 18.3883 17.8681 19.2377C17.4316 20.0613 16.8739 20.9879 16.1949 22.0174C15.9164 22.455 15.5207 22.9312 15.0079 23.4459C14.4951 23.9607 13.9394 24.4369 13.3408 24.8744C12.7493 25.2862 12.1421 25.608 11.5193 25.8396C10.9035 26.0455 10.3534 26.0584 9.86886 25.8782C9.59644 25.801 9.43767 25.6981 9.39254 25.5694C9.34741 25.4407 9.3794 25.2734 9.48853 25.0675C10.0075 24.0379 10.5258 23.0598 11.0435 22.1333C11.5949 21.1809 12.1161 20.2415 12.6072 19.3149C13.0982 18.3883 13.5562 17.436 13.9812 16.4579C14.4399 15.4541 14.8563 14.3602 15.2304 13.1762C15.2304 13.1762 15.1869 13.1891 15.0999 13.2148C15.013 13.2406 14.8558 13.2792 14.6286 13.3306C14.4013 13.3821 14.0638 13.4465 13.6163 13.5237C13.1953 13.6009 12.6109 13.691 11.863 13.7939C10.9818 13.8969 10.212 13.884 9.55349 13.7553C8.92169 13.6266 8.40066 13.4336 7.9904 13.1762C7.58014 12.9188 7.27367 12.6228 7.07099 12.2882C6.86832 11.9536 6.77231 11.619 6.78297 11.2844C6.78665 10.9755 6.89988 10.7053 7.12264 10.4736C7.37207 10.242 7.65104 10.049 7.95955 9.89453C8.3017 9.71436 8.70006 9.57279 9.15462 9.46984ZM47.1368 8.15717C47.7978 8.07995 48.4819 8.01561 49.1891 7.96413C49.9034 7.88691 50.5405 7.8483 51.1005 7.8483C51.6942 7.82256 52.1573 7.83543 52.4901 7.88691C52.8564 7.91265 53.0187 8.00274 52.9768 8.15717C52.8595 8.49177 52.6876 8.92933 52.4612 9.46984C52.2614 10.0104 51.981 10.6023 51.62 11.2458C51.2926 11.8635 50.8881 12.5199 50.4065 13.2148C49.9585 13.884 49.434 14.5404 48.833 15.1838C49.0554 15.5442 49.3102 15.9817 49.5973 16.4965C49.9112 17.0113 50.2714 17.5518 50.678 18.118C50.9931 18.5298 51.311 18.9803 51.6319 19.4693C51.9527 19.9583 52.2237 20.4345 52.4448 20.8978C52.6996 21.3354 52.8849 21.7343 53.0006 22.0946C53.1429 22.455 53.1833 22.6995 53.1218 22.8282C53.0451 23.1113 52.809 23.343 52.4135 23.5231C52.0517 23.6776 51.647 23.7934 51.1994 23.8706C50.7518 23.9478 50.328 23.9864 49.928 23.9864C49.5547 23.9864 49.3251 23.9478 49.2394 23.8706C48.7109 23.4588 48.266 23.0341 47.9046 22.5965C47.5698 22.159 47.275 21.7214 47.0202 21.2839C46.7921 20.8463 46.5872 20.4216 46.4054 20.0098C46.2237 19.598 46.0448 19.2248 45.8688 18.8902C44.899 19.7138 43.9993 20.5246 43.1698 21.3225C42.3669 22.1204 41.4504 22.944 40.4203 23.7934C40.0445 23.9993 39.642 24.2052 39.2129 24.4111C38.8105 24.617 38.3918 24.7843 37.9569 24.913C37.5557 25.016 37.1684 25.0675 36.7951 25.0675C36.4287 25.0417 36.1169 24.913 35.8597 24.6814C35.5491 24.4497 35.4461 24.1409 35.5508 23.7548C35.682 23.3687 35.9397 23.0084 36.3236 22.6738C36.3643 22.6223 36.6276 22.3392 37.1138 21.8244C37.5999 21.3096 38.1806 20.6919 38.8559 19.9712C39.5648 19.2248 40.3276 18.4269 41.1445 17.5775C41.9682 16.7024 42.7212 15.8916 43.4035 15.1452C44.1124 14.3988 44.6966 13.7682 45.156 13.2534C45.6155 12.7386 45.8557 12.4427 45.8766 12.3654C45.436 12.4169 44.9919 12.4813 44.5443 12.5585C44.157 12.61 43.7564 12.6614 43.3425 12.7129C42.9552 12.7644 42.6282 12.7901 42.3616 12.7901C41.761 12.8416 41.1511 12.8287 40.532 12.7515C39.9466 12.6486 39.4541 12.3011 39.0545 11.7091C38.8575 11.4517 38.7041 11.1815 38.5941 10.8983C38.4842 10.6152 38.4507 10.345 38.4938 10.0876C38.5369 9.83018 38.6762 9.6114 38.9116 9.43123C39.1808 9.22532 39.5959 9.07089 40.1572 8.96794C41.4593 8.78776 42.6612 8.63333 43.7627 8.50464C44.8642 8.37595 45.9889 8.26012 47.1368 8.15717ZM59.6801 28.0017C59.3105 29.3658 58.7747 30.4082 58.0728 31.1289C57.3975 31.8496 56.7247 32.3644 56.0543 32.6732C55.2634 33.0336 54.4412 33.2137 53.5879 33.2137C53.4279 33.2137 53.3015 33.188 53.2088 33.1365C53.1161 33.085 53.0402 33.0207 52.9811 32.9435C52.9151 32.892 52.9065 32.7762 52.9553 32.596C52.9622 32.5703 53.0675 32.1327 53.2709 31.2833C53.5011 30.434 53.8044 29.3143 54.181 27.9244C54.5576 26.5346 54.9731 24.9516 55.4277 23.1757C55.9158 21.374 56.4011 19.5337 56.8835 17.6547C57.3926 15.7758 57.8947 13.9226 58.3899 12.0952C58.892 10.242 59.3453 8.56899 59.7497 7.07614C60.1809 5.5833 60.5458 4.33498 60.8444 3.33117C61.1431 2.32736 61.3469 1.72251 61.4561 1.5166C61.5861 1.23347 61.7949 1.0533 62.0825 0.976084C62.3771 0.87313 62.9231 0.924607 63.7207 1.13052C64.3246 1.36216 64.7742 1.67103 65.0696 2.05711C65.372 2.41745 65.5769 2.84214 65.6844 3.33117C65.7919 3.8202 65.8153 4.37359 65.7546 4.99131C65.7275 5.5833 65.6634 6.2139 65.562 6.8831L59.6801 28.0017ZM81.4759 7.3464C81.9965 7.29492 82.513 7.30779 83.0254 7.38501C83.5715 7.43648 83.9754 7.66813 84.2371 8.07995C84.3541 8.33734 84.3707 8.62046 84.287 8.92933C84.23 9.23819 84.173 9.54705 84.1159 9.85592C83.9486 10.4736 83.7429 11.2329 83.4988 12.1338C83.2883 13.0089 83.0338 13.9484 82.7351 14.9522C82.4701 15.9302 82.1883 16.9212 81.8897 17.925C81.591 18.9288 81.2901 19.8425 80.987 20.6662C80.6838 21.4898 80.372 22.1976 80.0516 22.7896C79.7382 23.3558 79.4273 23.7162 79.1187 23.8706C77.8605 24.2824 76.4806 24.5527 74.9791 24.6814C73.4775 24.8101 72.0734 24.8744 70.7668 24.8744C69.9401 24.8744 69.3397 24.6299 68.9655 24.1409C68.5983 23.6261 68.4596 22.9569 68.5495 22.1333C68.6996 21.2839 68.8422 20.5117 68.9771 19.8168C69.119 19.0961 69.2407 18.4011 69.342 17.7319C69.4433 17.0627 69.518 16.3935 69.5659 15.7243C69.6406 15.0551 69.6759 14.3344 69.6717 13.5623C69.6118 12.996 69.4881 12.4684 69.3006 11.9794C69.1398 11.4903 68.885 11.0528 68.5363 10.6667C68.5039 10.5895 68.4384 10.4865 68.34 10.3578C68.2415 10.2291 68.2868 10.0618 68.4759 9.85592C68.6245 9.70149 68.799 9.59853 68.9996 9.54705C69.2002 9.49558 69.4177 9.43123 69.6519 9.35401L81.4759 7.3464ZM99.225 13.292C99.5183 13.292 99.7037 13.395 99.7813 13.6009C99.8855 13.8068 99.9224 14.0642 99.8921 14.3731C99.8687 14.6562 99.792 14.9393 99.6619 15.2224C99.5585 15.5056 99.4662 15.6986 99.385 15.8015C99.4187 15.7758 99.28 15.9431 98.969 16.3034C98.6847 16.6638 98.2166 17.0627 97.5647 17.5003C96.9129 17.9379 96.0511 18.3625 94.9795 18.7744C93.9149 19.1604 92.6157 19.3792 91.0817 19.4307C90.7261 20.7434 90.3368 22.0818 89.9138 23.4459C89.4978 24.7843 89.0597 26.3029 88.5995 28.0017C88.3414 28.954 87.8852 29.7519 87.2309 30.3954C86.5766 31.0388 85.8968 31.5793 85.1916 32.0169C84.3657 32.5059 83.4843 32.9049 82.5473 33.2137C82.3803 33.2395 82.2505 33.2266 82.1577 33.1751C82.065 33.1237 81.9891 33.0593 81.93 32.9821C81.864 32.9306 81.8589 32.8019 81.9146 32.596C81.9216 32.5703 82.0303 32.1198 82.2408 31.2447C82.4709 30.3954 82.7644 29.2629 83.1213 27.8472C83.5118 26.4059 83.9413 24.7715 84.4098 22.944C84.9119 21.0908 85.4245 19.199 85.9475 17.2686C86.4705 15.3383 86.9866 13.4336 87.4957 11.5547C88.0048 9.67575 88.465 7.977 88.8765 6.45842C89.3216 4.9141 89.6969 3.62717 90.0025 2.59762C90.3082 1.56807 90.5155 0.950345 90.6247 0.744437C90.7547 0.461311 90.9502 0.281141 91.2111 0.203926C91.479 0.100971 92.0117 0.152448 92.8093 0.358358C93.4132 0.590004 93.8761 0.898868 94.1982 1.28495C94.5272 1.64529 94.7455 2.06998 94.853 2.55901C94.9605 3.04805 94.9839 3.60143 94.9232 4.21915C94.8961 4.81114 94.8319 5.44174 94.7306 6.11095C94.6445 6.62572 94.5032 7.29492 94.3067 8.11856C94.1172 8.91646 93.9108 9.72723 93.6877 10.5509C93.4715 11.3488 93.2594 12.0823 93.0514 12.7515C92.8434 13.4207 92.715 13.8454 92.6662 14.0256C93.6274 13.9226 94.5487 13.8197 95.4299 13.7167C96.1708 13.6395 96.8984 13.5623 97.6127 13.4851C98.3269 13.4079 98.8643 13.3435 99.225 13.292ZM78.9911 11.9407L74.2237 12.5585L73.0165 20.7048L77.1439 20.087L78.9911 11.9407ZM104.641 8.38882C105.837 8.20864 106.768 8.06708 107.436 7.96413C108.104 7.86117 108.715 7.77109 109.27 7.69387C109.824 7.61666 110.418 7.53944 111.052 7.46222C111.713 7.38501 112.627 7.30779 113.795 7.23058C115.05 7.12762 115.817 7.3464 116.097 7.88691C116.384 8.40168 116.455 9.17384 116.31 10.2034C116.019 11.0785 115.766 11.915 115.55 12.7129C115.333 13.5108 115.094 14.2958 114.832 15.068C115.407 14.9136 115.969 14.7591 116.517 14.6047C117.092 14.4503 117.664 14.3087 118.232 14.18C118.567 12.9446 118.874 11.7606 119.155 10.6281C119.461 9.49558 119.72 8.49177 119.93 7.61666C120.175 6.7158 120.377 5.96938 120.537 5.37739C120.698 4.78541 120.802 4.39932 120.851 4.21915C120.984 3.73012 121.19 3.45986 121.471 3.40839C121.785 3.33117 122.035 3.29256 122.222 3.29256C122.595 3.29256 122.955 3.34404 123.3 3.44699C123.679 3.52421 124.001 3.66577 124.265 3.87168C124.563 4.05185 124.78 4.2835 124.917 4.56663C125.087 4.82401 125.15 5.13288 125.106 5.49322C125.057 5.67339 124.897 6.26538 124.625 7.26918C124.386 8.24725 124.082 9.46984 123.711 10.9369C123.347 12.3783 122.928 13.9741 122.454 15.7243C122.013 17.4488 121.566 19.1476 121.113 20.8206C120.66 22.4936 120.224 24.0508 119.807 25.4921C119.417 26.9335 119.08 28.0789 118.796 28.9283C118.679 29.2629 118.455 29.5975 118.124 29.9321C117.813 30.2924 117.459 30.6141 117.063 30.8973C116.659 31.2061 116.239 31.4764 115.803 31.708C115.394 31.9397 115.015 32.107 114.667 32.2099C114.312 32.3386 114.032 32.3901 113.825 32.3644C113.646 32.3386 113.587 32.2099 113.65 31.9783C113.657 31.9525 113.752 31.5536 113.934 30.7814C114.143 30.0093 114.402 29.0055 114.71 27.77C115.045 26.5346 115.412 25.1318 115.81 23.5617C116.236 21.9917 116.662 20.3702 117.088 18.6971L116.497 18.813C115.394 19.0446 114.358 19.0317 113.387 18.7744C113.066 19.4693 112.704 20.1642 112.302 20.8592C111.928 21.5541 111.482 22.2619 110.967 22.9826C110.635 23.4202 110.216 23.8835 109.711 24.3725C109.212 24.8358 108.66 25.2476 108.056 25.608C107.478 25.9683 106.872 26.2386 106.236 26.4187C105.634 26.5732 105.078 26.5603 104.567 26.3801C104.015 26.2514 103.865 25.9683 104.117 25.5308C104.702 24.5527 105.273 23.5746 105.832 22.5965C106.397 21.5927 106.926 20.5761 107.418 19.5465C106.203 19.701 104.996 19.7267 103.797 19.6237C103.198 19.5723 102.666 19.4178 102.203 19.1604C101.773 18.8773 101.48 18.5298 101.325 18.118C101.293 18.0408 101.257 17.925 101.219 17.7706C101.181 17.6161 101.173 17.4488 101.195 17.2686C101.217 17.0885 101.276 16.9212 101.371 16.7667C101.493 16.6123 101.711 16.4965 102.025 16.4193C103.375 16.1619 104.631 15.956 105.793 15.8015C106.962 15.6214 108.144 15.4412 109.339 15.261C109.546 14.6948 109.739 14.1285 109.92 13.5623C110.1 12.996 110.27 12.4169 110.43 11.8249C110.263 11.8507 109.986 11.8893 109.599 11.9407C109.265 11.9922 108.791 12.0694 108.176 12.1724C107.595 12.2496 106.804 12.3654 105.802 12.5199C104.834 12.6486 104.097 12.6614 103.592 12.5585C103.093 12.4298 102.715 12.2496 102.458 12.018C102.234 11.7606 102.088 11.4646 102.019 11.13C101.976 10.7954 101.947 10.4608 101.931 10.1262C101.961 9.81731 102.114 9.54705 102.39 9.31541C102.693 9.08376 103.008 8.90359 103.337 8.7749C103.725 8.62046 104.16 8.49177 104.641 8.38882ZM130.083 14.1414C129.887 14.8621 129.637 15.7372 129.331 16.7667C129.052 17.7963 128.746 18.8773 128.413 20.0098C128.106 21.1423 127.789 22.2619 127.463 23.3687C127.163 24.4755 126.898 25.4535 126.668 26.3029C126.176 27.8215 125.68 28.8639 125.18 29.4302C124.917 29.7133 124.657 29.9835 124.401 30.2409C124.164 30.5241 123.907 30.7814 123.631 31.0131C123.126 31.5021 122.441 31.8625 121.578 32.0941C120.771 32.1198 120.569 31.2447 120.97 29.4688C120.998 29.3658 121.106 28.9154 121.296 28.1175C121.512 27.3196 121.778 26.29 122.093 25.0289C122.434 23.7677 122.805 22.352 123.203 20.782C123.609 19.1862 124.022 17.5646 124.441 15.9174C124.895 14.2444 125.324 12.61 125.73 11.0142C126.169 9.39262 126.567 7.92552 126.922 6.61285C127.285 5.27444 127.585 4.16768 127.822 3.29256C128.093 2.39171 128.273 1.82546 128.362 1.59381C128.512 1.33642 128.697 1.19486 128.917 1.16912C129.171 1.11765 129.378 1.09191 129.538 1.09191C130.098 1.09191 130.554 1.18199 130.905 1.36216C131.256 1.54234 131.534 1.74824 131.738 1.97989C131.949 2.1858 132.093 2.39171 132.17 2.59762C132.248 2.80353 132.29 2.94509 132.295 3.02231C132.352 3.30543 132.312 3.84594 132.176 4.64384C132.073 5.416 131.906 6.32972 131.673 7.38501C131.441 8.44029 131.177 9.55992 130.883 10.7439C130.616 11.9279 130.349 13.0604 130.083 14.1414ZM153.046 9.85592C153.346 9.83018 153.636 9.84305 153.915 9.89453C154.229 9.92026 154.501 9.99748 154.733 10.1262C154.971 10.2291 155.143 10.3836 155.247 10.5895C155.378 10.7954 155.428 11.0528 155.398 11.3616C155.312 11.8764 155.113 12.314 154.802 12.6743C154.498 13.0089 154.125 13.3049 153.682 13.5623C153.246 13.7939 152.78 13.987 152.285 14.1414C151.79 14.2958 151.328 14.4245 150.9 14.5275C149.503 14.8621 148.09 15.1066 146.661 15.261C145.233 15.4155 143.764 15.5699 142.256 15.7243L142.029 17.1528C143.664 17.0241 145.296 16.8568 146.925 16.6509C148.554 16.445 150.269 16.3163 152.069 16.2648C152.416 16.2648 152.622 16.3421 152.687 16.4965C152.778 16.6509 152.783 16.8311 152.7 17.037C152.651 17.2172 152.563 17.3973 152.434 17.5775C152.305 17.7577 152.224 17.8606 152.19 17.8864C151.825 18.3497 151.232 18.813 150.414 19.2763C149.602 19.7138 148.814 20.0613 148.051 20.3187C146.701 20.5761 145.502 20.7691 144.454 20.8978C143.44 21.0008 142.406 21.0265 141.353 20.975C141.316 21.3096 141.276 21.6056 141.233 21.863C141.19 22.1204 141.177 22.3134 141.196 22.4421C142.063 22.3906 142.894 22.3263 143.688 22.2491C144.489 22.1461 145.331 22.0432 146.212 21.9402C147.12 21.8373 148.108 21.7343 149.175 21.6314C150.25 21.5027 151.512 21.374 152.96 21.2453C153.394 21.2195 153.639 21.2967 153.697 21.4769C153.782 21.6571 153.746 21.8887 153.589 22.1719C153.466 22.4292 153.283 22.7124 153.039 23.0212C152.802 23.3044 152.572 23.5617 152.35 23.7934C151.952 24.1795 151.571 24.5012 151.208 24.7586C150.845 25.016 150.479 25.2348 150.11 25.4149C149.768 25.5951 149.406 25.7495 149.025 25.8782C148.643 26.0069 148.222 26.1356 147.76 26.2643C146.563 26.5474 145.401 26.7533 144.273 26.882C143.178 26.985 142.037 27.0622 140.85 27.1137H137.97C137.303 27.1137 136.692 26.9593 136.136 26.6504C135.613 26.3158 135.352 25.801 135.354 25.1061C135.343 24.9516 135.35 24.6299 135.376 24.1409C135.408 23.6261 135.449 23.0341 135.497 22.3649C135.552 21.67 135.617 20.9364 135.693 20.1642C135.769 19.3921 135.841 18.6843 135.908 18.0408C135.983 17.3716 136.043 16.8054 136.089 16.3421C136.134 15.8788 136.154 15.6085 136.148 15.5313C135.814 15.5828 135.527 15.6085 135.287 15.6085C135.074 15.6085 134.884 15.5699 134.719 15.4927C134.587 15.3897 134.455 15.2353 134.324 15.0294C134.227 14.7977 134.141 14.476 134.066 14.0642C133.978 13.6009 134.033 13.2019 134.23 12.8673C134.461 12.507 134.768 12.211 135.151 11.9794C135.567 11.722 136.033 11.5289 136.548 11.4002C137.096 11.2458 137.647 11.13 138.202 11.0528L153.046 9.85592Z" fill="white"/>
</svg>
