<svg width="185" height="261" viewBox="0 0 185 261" fill="none" xmlns="http://www.w3.org/2000/svg">
<path d="M153.059 46.7209L152.982 46.5468L152.875 46.3902C150.021 42.2519 144.796 36.0312 138.302 30.6796C131.844 25.3576 123.887 20.6924 115.594 20.0761C107.558 19.4789 97.9095 21.3024 89.2361 23.7396C80.5573 26.1784 72.6593 29.2884 67.9875 31.4336C59.266 34.879 47.0963 44.9222 43.7778 64.0299C42.1824 73.2156 41.4858 78.0214 41.4317 83.0033C41.3882 87.0171 41.7646 91.1405 42.3688 97.7581C42.5067 99.2683 42.6564 100.909 42.8157 102.707C43.3963 109.261 43.2164 120.136 40.7648 131.27C38.3071 142.432 33.625 153.591 25.4093 161.016C16.2807 169.267 11.263 182.401 8.99345 194.757C6.72739 207.094 7.1066 219.188 9.25644 225.637C11.4236 232.138 17.7306 240.26 25.9549 246.692C34.2057 253.145 44.7322 258.169 55.5488 258.027C68.534 257.855 87.748 254.557 105.433 249.694C114.291 247.259 122.817 244.417 130.034 241.35C137.145 238.329 143.154 235.021 146.921 231.561C148.172 230.652 149.574 229.21 151.043 227.44C152.579 225.589 154.27 223.28 156.04 220.617C159.582 215.29 163.49 208.476 167.165 200.942C174.487 185.927 181.009 167.787 181.677 152.71C182.342 137.674 177.64 116.818 171.613 97.0438C165.565 77.2024 158.099 58.1876 153.059 46.7209Z" fill="#DBDBDB" stroke="white" stroke-width="4"/>
<path d="M36.7139 64.5639L36.2321 66.1469L37.8547 66.4715C44.6189 67.8244 50.0393 65.7701 54.3392 62.1658C58.5797 58.6114 61.737 53.5523 64.1711 48.8104C65.3941 46.4279 66.4512 44.0912 67.3746 42.0293C67.4488 41.8637 67.522 41.7002 67.5942 41.5387C68.4315 39.6677 69.1414 38.0812 69.7801 36.8729C70.1236 36.223 70.4202 35.734 70.6756 35.3934C70.7086 35.4586 70.744 35.5324 70.7814 35.6156C73.0567 40.6718 77.1404 48.4955 81.0297 54.3891C82.9569 57.3095 84.9165 59.8811 86.6447 61.3769C87.4769 62.0971 88.4729 62.7642 89.5416 62.8847C90.1266 62.9506 90.7386 62.8522 91.2979 62.514C91.8399 62.1863 92.2197 61.702 92.4848 61.1837C94.4699 57.3039 95.3582 52.6082 95.6971 48.0089C96.0372 43.3932 95.8307 38.7618 95.5525 34.9533C95.4504 33.555 95.3375 32.2551 95.2383 31.1113C95.2203 30.9049 95.2029 30.7036 95.186 30.5077C95.7285 31.0297 96.3568 31.4902 97.0386 31.8967C98.4356 32.7297 100.146 33.3897 102.043 33.908C105.838 34.9445 110.582 35.4673 115.559 35.5624C125.484 35.7521 136.708 34.2445 143.716 31.3895L146.924 30.0823L143.776 28.6371C142.768 28.1746 141.555 27.5889 140.161 26.916C134.649 24.2545 126.313 20.2293 116.705 17.0749C104.666 13.122 90.4019 10.4496 76.8169 13.5372C63.0419 16.6679 53.88 26.6951 47.7657 37.1822C42.0077 47.0583 38.8388 57.5386 37.0343 63.5066C36.9223 63.8768 36.8156 64.2296 36.7139 64.5639Z" fill="#DBDBDB" stroke="white" stroke-width="3"/>
<path d="M68.7373 4.55775L67.0238 5.04733L67.7986 6.65216L74.7987 21.1524L75.208 22.0003H76.1495H81.1495H83.1714L82.5851 20.0653L77.585 3.56499L77.1569 2.15214L75.7374 2.55772L68.7373 4.55775Z" fill="#DBDBDB" stroke="white" stroke-width="3"/>
<ellipse cx="69.6495" cy="100.502" rx="5.50006" ry="5.50011" fill="white"/>
<ellipse cx="102.65" cy="100.502" rx="5.50006" ry="5.50011" fill="white"/>
<path d="M72.0005 111.002C79.1672 122.002 80.5006 121.502 92.0007 111.002" stroke="white" stroke-width="3"/>
</svg>
