<svg width="255" height="54" viewBox="0 0 255 54" fill="none" xmlns="http://www.w3.org/2000/svg">
<path d="M60.1888 21.6208C60.6582 21.6208 60.9493 21.8061 61.0622 22.1767C61.1863 22.5062 61.2083 22.8974 61.1282 23.3504C61.0908 23.8034 60.9894 24.2564 60.824 24.7094C60.6586 25.1624 60.5322 25.4713 60.4449 25.636C60.3799 25.7184 60.0718 26.0684 59.5204 26.6862C58.9802 27.2627 58.1672 27.901 57.0815 28.6011C56.007 29.26 54.6394 29.8983 52.9787 30.5161C51.3292 31.0926 49.3468 31.4015 47.0316 31.4427C46.4626 33.5429 45.8397 35.6844 45.163 37.867C44.5401 40.0085 43.8605 42.4382 43.124 45.1562C42.7112 46.6799 41.96 47.9566 40.8703 48.9861C39.8234 50.0157 38.7357 50.8805 37.6074 51.5806C36.2861 52.363 34.8758 53.0013 33.3765 53.4955C33.1094 53.5367 32.9016 53.5161 32.7533 53.4338C32.6049 53.3514 32.4835 53.2484 32.389 53.1249C32.2833 53.0425 32.2751 52.8366 32.3643 52.5072C32.3755 52.466 32.5494 51.7453 32.8861 50.3451C33.2543 48.9861 33.7453 47.1741 34.359 44.9091C34.9838 42.6029 35.671 39.9879 36.4206 37.064C37.224 34.0989 38.0227 31.072 38.8169 27.9834C39.6538 24.8947 40.4795 21.8473 41.294 18.841C42.1085 15.8347 42.845 13.1167 43.5033 10.687C44.2154 8.2161 44.816 6.157 45.305 4.50973C45.794 2.86246 46.1258 1.87409 46.3003 1.54464C46.5084 1.09164 46.8212 0.803364 47.2387 0.679821C47.71 0.515093 48.5837 0.597457 49.8597 0.926912C50.826 1.29755 51.5454 1.79173 52.018 2.40946C52.5445 2.986 52.8937 3.6655 53.0657 4.44796C53.2377 5.23041 53.2751 6.11582 53.178 7.10419C53.1347 8.05137 53.032 9.06032 52.8699 10.1311C52.7747 10.9547 52.5486 12.0254 52.1916 13.3432C51.8884 14.6199 51.5582 15.9171 51.2012 17.2349C50.8553 18.5116 50.5159 19.6852 50.1831 20.756C49.8504 21.8267 49.6449 22.5062 49.5668 22.7945C51.1048 22.6297 52.5788 22.465 53.9887 22.3003C55.1742 22.1767 56.3383 22.0532 57.4811 21.9296C58.6666 21.8061 59.5692 21.7031 60.1888 21.6208ZM13.9738 15.5053C16.9979 15.0523 19.4394 14.7022 21.2983 14.4551C23.1999 14.2081 24.6795 14.0227 25.737 13.8992C26.7944 13.7756 27.5207 13.6933 27.9159 13.6521C28.3537 13.6109 28.6366 13.5903 28.7646 13.5903C30.6866 13.4256 31.8662 13.7962 32.3034 14.7022C32.7832 15.6082 32.8112 16.8437 32.3872 18.4086C31.9074 20.1794 31.4564 21.7649 31.0344 23.1651C30.6662 24.5241 30.2182 25.8625 29.6905 27.1803C29.2166 28.457 28.6249 29.7748 27.9153 31.1338C27.2169 32.4516 26.3246 33.9342 25.2383 35.5814C24.7926 36.2815 24.1595 37.0434 23.339 37.867C22.5185 38.6907 21.6294 39.4525 20.6717 40.1526C19.7252 40.8115 18.7537 41.3263 17.7573 41.6969C16.772 42.0264 15.8918 42.047 15.1166 41.7587C14.6807 41.6352 14.4267 41.4704 14.3545 41.2645C14.2823 41.0586 14.3334 40.7909 14.508 40.4615C15.3384 38.8142 16.1677 37.2493 16.9961 35.7667C17.8782 34.243 18.7122 32.7399 19.4979 31.2573C20.2835 29.7748 21.0164 28.2511 21.6964 26.6862C22.4302 25.0801 23.0964 23.3298 23.695 21.4355C23.695 21.4355 23.6255 21.4561 23.4863 21.4972C23.3471 21.5384 23.0957 21.6002 22.7321 21.6826C22.3684 21.7649 21.8285 21.8679 21.1124 21.9914C20.4389 22.115 19.5039 22.2591 18.3072 22.4238C16.8973 22.5886 15.6655 22.568 14.612 22.3621C13.6011 22.1561 12.7675 21.8473 12.111 21.4355C11.4546 21.0236 10.9643 20.5501 10.64 20.0147C10.3157 19.4793 10.1621 18.944 10.1792 18.4086C10.185 17.9144 10.3662 17.482 10.7226 17.1114C11.1217 16.7407 11.5681 16.4319 12.0617 16.1848C12.6091 15.8965 13.2465 15.67 13.9738 15.5053ZM74.7453 13.405C75.8028 13.2815 76.8974 13.1785 78.029 13.0961C79.1718 12.9726 80.1912 12.9108 81.0872 12.9108C82.0371 12.8696 82.7782 12.8902 83.3105 12.9726C83.8967 13.0138 84.1563 13.1579 84.0893 13.405C83.9016 13.9404 83.6266 14.6405 83.2643 15.5053C82.9446 16.3701 82.496 17.3173 81.9184 18.3468C81.3946 19.3352 80.7474 20.3853 79.9768 21.4972C79.26 22.568 78.4208 23.6181 77.4592 24.6477C77.815 25.2242 78.2227 25.9243 78.6822 26.7479C79.1843 27.5716 79.7607 28.4364 80.4112 29.3424C80.9153 30.0013 81.4241 30.722 81.9374 31.5044C82.4507 32.2869 82.8843 33.0487 83.2381 33.79C83.6458 34.4901 83.9422 35.1284 84.1273 35.705C84.3551 36.2815 84.4197 36.6727 84.3213 36.8787C84.1986 37.3317 83.8208 37.7023 83.188 37.9906C82.6091 38.2377 81.9615 38.423 81.2454 38.5465C80.5293 38.6701 79.8512 38.7318 79.2112 38.7318C78.6138 38.7318 78.2466 38.6701 78.1094 38.5465C77.2639 37.8876 76.552 37.2081 75.9737 36.508C75.4381 35.8079 74.9664 35.1078 74.5588 34.4077C74.1938 33.7077 73.8659 33.0282 73.5751 32.3692C73.2843 31.7103 72.9981 31.1132 72.7165 30.5778C71.1647 31.8957 69.7253 33.1929 68.398 34.4695C67.1135 35.7462 65.6471 37.064 63.9989 38.423C63.3976 38.7524 62.7537 39.0819 62.0671 39.4113C61.4231 39.7408 60.7533 40.0085 60.0575 40.2144C59.4155 40.3791 58.7959 40.4615 58.1985 40.4615C57.6124 40.4203 57.1135 40.2144 56.7019 39.8437C56.205 39.4731 56.0402 38.9789 56.2076 38.3612C56.4176 37.7435 56.8299 37.1669 57.4442 36.6316C57.5092 36.5492 57.9306 36.0962 58.7085 35.2726C59.4863 34.4489 60.4154 33.4606 61.4958 32.3075C62.6301 31.1132 63.8506 29.8366 65.1575 28.4776C66.4756 27.0774 67.6804 25.7802 68.772 24.5859C69.9062 23.3916 70.8409 22.3826 71.5761 21.559C72.3112 20.7354 72.6955 20.2618 72.729 20.1382C72.024 20.2206 71.3135 20.3236 70.5973 20.4471C69.9777 20.5295 69.3367 20.6118 68.6744 20.6942C68.0547 20.7766 67.5316 20.8177 67.1049 20.8177C66.1439 20.9001 65.1682 20.8795 64.1776 20.756C63.2409 20.5912 62.4529 20.0353 61.8135 19.0881C61.4985 18.6763 61.2529 18.2439 61.077 17.7909C60.9011 17.3379 60.8476 16.9055 60.9165 16.4936C60.9854 16.0818 61.2083 15.7318 61.585 15.4435C62.0156 15.1141 62.6799 14.867 63.5779 14.7022C65.6613 14.414 67.5843 14.1669 69.3467 13.961C71.1092 13.7551 72.9087 13.5697 74.7453 13.405ZM94.8145 45.1562C94.2232 47.3388 93.3659 49.0067 92.2428 50.1598C91.1624 51.3129 90.0859 52.1365 89.0134 52.6307C87.7478 53.2073 86.4324 53.4955 85.067 53.4955C84.811 53.4955 84.6089 53.4543 84.4605 53.372C84.3122 53.2896 84.1907 53.1867 84.0962 53.0631C83.9905 52.9808 83.9767 52.7954 84.0548 52.5072C84.066 52.466 84.2343 51.7659 84.5599 50.4069C84.9281 49.0479 85.4135 47.2565 86.016 45.0327C86.6185 42.8088 87.2834 40.2762 88.0107 37.4346C88.7917 34.5519 89.5682 31.6074 90.34 28.6011C91.1546 25.5948 91.958 22.6297 92.7502 19.7058C93.5535 16.7407 94.2788 14.0639 94.926 11.6754C95.6158 9.28682 96.1996 7.2895 96.6775 5.68341C97.1553 4.07732 97.4815 3.10955 97.6561 2.78009C97.8642 2.32709 98.1983 2.03882 98.6584 1.91527C99.1297 1.75055 100.003 1.83291 101.279 2.16237C102.246 2.533 102.965 3.02718 103.438 3.64491C103.922 4.22146 104.249 4.90096 104.421 5.68341C104.593 6.46587 104.631 7.35128 104.534 8.33964C104.49 9.28683 104.388 10.2958 104.226 11.3665L94.8145 45.1562ZM129.688 12.1078C130.521 12.0254 131.347 12.046 132.167 12.1696C133.041 12.2519 133.687 12.6226 134.106 13.2815C134.293 13.6933 134.32 14.1463 134.186 14.6405C134.094 15.1346 134.003 15.6288 133.912 16.123C133.644 17.1114 133.315 18.3262 132.924 19.7676C132.588 21.1678 132.18 22.6709 131.703 24.277C131.279 25.8419 130.828 27.4274 130.35 29.0335C129.872 30.6396 129.391 32.1016 128.906 33.4194C128.421 34.7372 127.922 35.8697 127.409 36.8169C126.908 37.7229 126.41 38.2994 125.916 38.5465C123.903 39.2054 121.695 39.6378 119.293 39.8437C116.89 40.0497 114.644 40.1526 112.553 40.1526C111.231 40.1526 110.27 39.7614 109.671 38.9789C109.084 38.1553 108.862 37.0846 109.006 35.7667C109.246 34.4077 109.474 33.1723 109.69 32.0604C109.917 30.9073 110.111 29.7954 110.274 28.7247C110.436 27.6539 110.555 26.5832 110.632 25.5125C110.751 24.4417 110.808 23.2886 110.801 22.0532C110.705 21.1472 110.507 20.303 110.207 19.5205C109.95 18.7381 109.542 18.038 108.984 17.4202C108.933 17.2967 108.828 17.132 108.67 16.9261C108.513 16.7201 108.585 16.4525 108.888 16.123C109.126 15.8759 109.405 15.7112 109.726 15.6288C110.047 15.5465 110.395 15.4435 110.769 15.32L129.688 12.1078ZM158.086 21.6208C158.556 21.6208 158.852 21.7855 158.976 22.115C159.143 22.4444 159.202 22.8562 159.154 23.3504C159.116 23.8034 158.994 24.2564 158.785 24.7094C158.62 25.1624 158.472 25.4713 158.342 25.636C158.396 25.5948 158.174 25.8625 157.677 26.4391C157.222 27.0156 156.473 27.6539 155.43 28.354C154.387 29.0541 153.008 29.7336 151.294 30.3925C149.59 31.0102 147.511 31.3603 145.057 31.4427C144.488 33.5429 143.865 35.6844 143.189 37.867C142.523 40.0085 141.822 42.4382 141.086 45.1562C140.673 46.6799 139.943 47.9566 138.896 48.9861C137.849 50.0157 136.761 50.8805 135.633 51.5806C134.312 52.363 132.901 53.0013 131.402 53.4955C131.135 53.5367 130.927 53.5161 130.779 53.4338C130.63 53.3514 130.509 53.2484 130.414 53.1249C130.309 53.0425 130.301 52.8366 130.39 52.5072C130.401 52.466 130.575 51.7453 130.912 50.3451C131.28 48.9861 131.749 47.1741 132.32 44.9091C132.945 42.6029 133.633 39.9879 134.382 37.064C135.185 34.0989 136.006 31.072 136.842 27.9834C137.679 24.8947 138.505 21.8473 139.319 18.841C140.134 15.8347 140.87 13.1167 141.529 10.687C142.241 8.2161 142.841 6.157 143.33 4.50973C143.819 2.86246 144.151 1.87409 144.326 1.54464C144.534 1.09164 144.847 0.803364 145.264 0.679821C145.693 0.515093 146.545 0.597457 147.821 0.926912C148.787 1.29755 149.528 1.79173 150.044 2.40946C150.57 2.986 150.919 3.6655 151.091 4.44796C151.263 5.23041 151.301 6.11582 151.204 7.10419C151.16 8.05137 151.058 9.06032 150.895 10.1311C150.758 10.9547 150.531 12.0254 150.217 13.3432C149.914 14.6199 149.584 15.9171 149.227 17.2349C148.881 18.5116 148.541 19.6852 148.209 20.756C147.876 21.8267 147.67 22.5062 147.592 22.7945C149.13 22.6297 150.604 22.465 152.014 22.3003C153.2 22.1767 154.364 22.0532 155.507 21.9296C156.649 21.8061 157.509 21.7031 158.086 21.6208ZM125.712 19.4587L118.084 20.4471L116.153 33.4812L122.757 32.4928L125.712 19.4587ZM166.752 13.7756C168.665 13.4874 170.156 13.2609 171.225 13.0961C172.293 12.9314 173.271 12.7873 174.158 12.6637C175.044 12.5402 175.995 12.4166 177.01 12.2931C178.068 12.1696 179.53 12.046 181.399 11.9225C183.406 11.7577 184.634 12.1078 185.082 12.9726C185.542 13.7962 185.655 15.0317 185.422 16.679C184.957 18.0791 184.552 19.4176 184.206 20.6942C183.86 21.9708 183.477 23.2269 183.057 24.4623C183.977 24.2152 184.876 23.9681 185.754 23.7211C186.674 23.474 187.589 23.2475 188.498 23.0416C189.033 21.0648 189.525 19.1705 189.974 17.3585C190.465 15.5465 190.878 13.9404 191.215 12.5402C191.606 11.0988 191.929 9.90455 192.186 8.95737C192.443 8.01019 192.61 7.39246 192.688 7.10419C192.9 6.32173 193.231 5.88932 193.679 5.80696C194.182 5.68341 194.583 5.62164 194.882 5.62164C195.479 5.62164 196.054 5.704 196.607 5.86873C197.213 5.99228 197.728 6.21878 198.151 6.54823C198.627 6.8365 198.975 7.20714 199.193 7.66014C199.466 8.07196 199.567 8.56614 199.496 9.14269C199.418 9.43096 199.161 10.3781 198.726 11.9842C198.344 13.5491 197.857 15.5053 197.264 17.8526C196.682 20.1588 196.011 22.7121 195.252 25.5125C194.547 28.2717 193.832 30.9897 193.107 33.6665C192.382 36.3433 191.685 38.8348 191.018 41.141C190.393 43.4472 189.854 45.2798 189.4 46.6388C189.213 47.1741 188.854 47.7095 188.325 48.2448C187.828 48.8214 187.261 49.3362 186.627 49.7892C185.981 50.2833 185.309 50.7158 184.611 51.0864C183.956 51.457 183.35 51.7247 182.794 51.8894C182.226 52.0953 181.777 52.1777 181.447 52.1365C181.159 52.0953 181.066 51.8894 181.166 51.5188C181.177 51.4776 181.329 50.8393 181.621 49.6038C181.956 48.3684 182.37 46.7623 182.862 44.7856C183.398 42.8088 183.985 40.5644 184.623 38.0523C185.303 35.5402 185.985 32.9458 186.668 30.269L185.721 30.4543C183.957 30.8249 182.299 30.8043 180.746 30.3925C180.232 31.5044 179.653 32.6163 179.01 33.7282C178.41 34.8402 177.698 35.9727 176.874 37.1257C176.343 37.8258 175.673 38.5671 174.863 39.3496C174.065 40.0908 173.183 40.7497 172.216 41.3263C171.292 41.9028 170.321 42.3352 169.304 42.6235C168.341 42.8706 167.451 42.85 166.633 42.5617C165.75 42.3558 165.51 41.9028 165.913 41.2027C166.849 39.6378 167.764 38.0729 168.657 36.508C169.562 34.9019 170.408 33.2752 171.195 31.628C169.251 31.8751 167.32 31.9162 165.402 31.7515C164.443 31.6692 163.593 31.4221 162.851 31.0102C162.163 30.5572 161.695 30.0013 161.447 29.3424C161.395 29.2188 161.338 29.0335 161.277 28.7864C161.216 28.5393 161.203 28.2717 161.239 27.9834C161.274 27.6951 161.368 27.4274 161.52 27.1803C161.715 26.9332 162.064 26.7479 162.567 26.6244C164.727 26.2126 166.736 25.8831 168.595 25.636C170.465 25.3477 172.356 25.0595 174.269 24.7712C174.6 23.8652 174.91 22.9592 175.198 22.0532C175.486 21.1472 175.758 20.2206 176.015 19.2734C175.748 19.3146 175.304 19.3764 174.685 19.4587C174.15 19.5411 173.391 19.6646 172.408 19.8294C171.479 19.9529 170.213 20.1382 168.61 20.3853C167.06 20.5912 165.882 20.6118 165.073 20.4471C164.275 20.2412 163.671 19.9529 163.259 19.5823C162.901 19.1705 162.667 18.6969 162.556 18.1615C162.488 17.6261 162.441 17.0908 162.415 16.5554C162.464 16.0612 162.709 15.6288 163.151 15.2582C163.635 14.8876 164.14 14.5993 164.665 14.3934C165.287 14.1463 165.982 13.9404 166.752 13.7756ZM207.459 22.9798C207.146 24.1329 206.745 25.5331 206.256 27.1803C205.81 28.8276 205.32 30.5572 204.787 32.3692C204.296 34.1812 203.789 35.9727 203.266 37.7435C202.787 39.5143 202.363 41.0792 201.994 42.4382C201.208 44.8679 200.415 46.5358 199.615 47.4418C199.193 47.8948 198.778 48.3272 198.367 48.739C197.989 49.192 197.578 49.6038 197.137 49.9745C196.327 50.7569 195.232 51.3335 193.852 51.7041C192.561 51.7453 192.236 50.3451 192.878 47.5036C192.923 47.3388 193.097 46.6182 193.4 45.3415C193.746 44.0649 194.171 42.4176 194.675 40.3997C195.222 38.3818 195.814 36.1168 196.452 33.6047C197.101 31.0514 197.761 28.457 198.433 25.8213C199.158 23.1445 199.845 20.5295 200.494 17.9762C201.197 15.3817 201.833 13.0344 202.402 10.9341C202.983 8.79264 203.462 7.02182 203.842 5.62164C204.275 4.18027 204.563 3.27427 204.706 2.90364C204.946 2.49182 205.242 2.26532 205.594 2.22414C206.001 2.14178 206.332 2.10059 206.588 2.10059C207.484 2.10059 208.213 2.24473 208.775 2.533C209.336 2.82128 209.781 3.15073 210.107 3.52137C210.444 3.85082 210.675 4.18027 210.799 4.50973C210.923 4.83919 210.99 5.06568 210.999 5.18923C211.089 5.64223 211.026 6.50705 210.808 7.78369C210.644 9.01914 210.376 10.4811 210.004 12.1696C209.631 13.858 209.21 15.6494 208.739 17.5438C208.312 19.4381 207.885 21.2501 207.459 22.9798ZM244.2 16.123C244.68 16.0818 245.144 16.1024 245.591 16.1848C246.092 16.226 246.528 16.3495 246.899 16.5554C247.281 16.7201 247.555 16.9672 247.722 17.2967C247.931 17.6261 248.012 18.038 247.963 18.5321C247.825 19.3558 247.508 20.0559 247.01 20.6324C246.524 21.1678 245.926 21.6414 245.217 22.0532C244.519 22.4238 243.774 22.7327 242.982 22.9798C242.19 23.2269 241.451 23.4328 240.767 23.5975C238.531 24.1329 236.27 24.5241 233.985 24.7712C231.699 25.0183 229.35 25.2654 226.936 25.5125L226.573 27.7981C229.188 27.5922 231.8 27.3245 234.406 26.995C237.013 26.6656 239.757 26.4597 242.638 26.3773C243.192 26.3773 243.521 26.5008 243.625 26.7479C243.772 26.995 243.779 27.2833 243.647 27.6127C243.569 27.901 243.427 28.1893 243.221 28.4776C243.014 28.7658 242.884 28.9306 242.831 28.9717C242.246 29.713 241.298 30.4543 239.988 31.1956C238.689 31.8957 237.429 32.4516 236.208 32.8634C234.049 33.2752 232.13 33.5841 230.453 33.79C228.83 33.9547 227.176 33.9959 225.492 33.9136C225.432 34.4489 225.368 34.9225 225.299 35.3343C225.23 35.7462 225.21 36.055 225.24 36.2609C226.627 36.1786 227.957 36.0756 229.227 35.9521C230.509 35.7873 231.855 35.6226 233.265 35.4579C234.718 35.2932 236.299 35.1284 238.007 34.9637C239.727 34.7578 241.745 34.5519 244.063 34.346C244.756 34.3048 245.15 34.4283 245.242 34.7166C245.377 35.0049 245.32 35.3755 245.069 35.8285C244.872 36.2403 244.579 36.6933 244.189 37.1875C243.81 37.6405 243.442 38.0523 243.086 38.423C242.449 39.0407 241.84 39.5555 241.259 39.9673C240.679 40.3791 240.093 40.7292 239.503 41.0174C238.955 41.3057 238.377 41.5528 237.766 41.7587C237.156 41.9646 236.481 42.1705 235.743 42.3764C233.828 42.8294 231.968 43.1589 230.163 43.3648C228.412 43.5295 226.586 43.6531 224.686 43.7354H220.078C219.012 43.7354 218.033 43.4883 217.143 42.9942C216.307 42.4588 215.89 41.6352 215.893 40.5232C215.874 40.2762 215.886 39.7614 215.927 38.9789C215.98 38.1553 216.044 37.2081 216.121 36.1374C216.209 35.0255 216.314 33.8518 216.435 32.6163C216.557 31.3809 216.671 30.2484 216.78 29.2188C216.899 28.1481 216.995 27.2421 217.068 26.5008C217.141 25.7596 217.173 25.3271 217.164 25.2036C216.629 25.286 216.17 25.3271 215.786 25.3271C215.445 25.3271 215.142 25.2654 214.876 25.1418C214.665 24.9771 214.455 24.73 214.245 24.4006C214.09 24.0299 213.952 23.5151 213.832 22.8562C213.691 22.115 213.779 21.4766 214.094 20.9413C214.464 20.3647 214.955 19.8911 215.567 19.5205C216.234 19.1087 216.979 18.7998 217.802 18.5939C218.68 18.3468 219.562 18.1615 220.449 18.038L244.2 16.123Z" fill="black"/>
</svg>
