<svg width="168" height="237" viewBox="0 0 168 237" fill="none" xmlns="http://www.w3.org/2000/svg">
<path d="M41.5616 56.2598C44.4638 39.1211 55.0827 30.2578 62.4794 27.2791C70.7951 23.3552 90.9179 15.7734 104.882 16.8375C118.847 17.9017 132.373 33.0948 137.39 40.5583C146.497 61.8142 164.416 111.16 163.235 138.497C162.054 165.833 140.046 205.021 132.324 210.613C119.604 222.727 73.6079 234.548 50.4374 234.862C31.901 235.114 13.7633 217.136 10.1293 205.953C6.49498 194.77 8.57345 162.285 24.3 147.705C40.0266 133.126 41.7904 104.373 40.7065 91.8195C40.5597 90.1195 40.4225 88.5764 40.2967 87.1617C39.0758 73.4322 38.9304 71.7974 41.5616 56.2598Z" fill="#E4D6FF"/>
<path d="M41.5616 56.2598C44.4638 39.1211 55.0827 30.2578 62.4794 27.2791C70.7951 23.3552 90.9179 15.7734 104.882 16.8375C118.847 17.9017 132.373 33.0948 137.39 40.5583C146.497 61.8142 164.416 111.16 163.235 138.497C162.054 165.833 140.046 205.021 132.324 210.613C119.604 222.727 73.6079 234.548 50.4374 234.862C31.901 235.114 13.7633 217.136 10.1293 205.953C6.49498 194.77 8.57345 162.285 24.3 147.705C40.0266 133.126 41.7904 104.373 40.7065 91.8195C40.5597 90.1195 40.4225 88.5764 40.2967 87.1617C39.0758 73.4322 38.9304 71.7974 41.5616 56.2598Z" stroke="white"/>
<path d="M70.0906 10.2507C46.7975 15.6809 38.3283 44.403 34.9467 55.8713C34.8463 56.2118 34.7504 56.5371 34.6587 56.8461C49.0886 59.8066 56.001 43.9594 60.172 34.3971C62.5662 28.9083 64.0571 25.4902 65.548 28.8887C69.6363 38.2079 80.2532 57.778 82.8097 52.6525C86.7978 44.657 85.7483 32.2568 85.1675 25.3943C84.7667 20.6589 84.5891 18.5604 86.4438 22.3653C90.0778 29.8206 117.787 29.355 130.052 24.2295C129.112 23.7866 127.989 23.2309 126.707 22.5959C115.398 16.996 91.6326 5.22863 70.0906 10.2507Z" fill="#65FB76"/>
<path d="M70.0906 10.2507C46.7975 15.6809 38.3283 44.403 34.9467 55.8713C34.8463 56.2118 34.7504 56.5371 34.6587 56.8461C49.0886 59.8066 56.001 43.9594 60.172 34.3971C62.5662 28.9083 64.0571 25.4902 65.548 28.8887C69.6363 38.2079 80.2532 57.778 82.8097 52.6525C86.7978 44.657 85.7483 32.2568 85.1675 25.3943C84.7667 20.6589 84.5891 18.5604 86.4438 22.3653C90.0778 29.8206 117.787 29.355 130.052 24.2295C129.112 23.7866 127.989 23.2309 126.707 22.5959C115.398 16.996 91.6326 5.22863 70.0906 10.2507Z" stroke="white"/>
<path d="M62.8218 1.86383L69.1814 15.3766H73.7239L69.1814 0L62.8218 1.86383Z" fill="#65FB76"/>
<path d="M62.8218 1.86383L69.1814 15.3766H73.7239L69.1814 0L62.8218 1.86383Z" stroke="white"/>
<ellipse cx="63.2771" cy="89.9295" rx="4.99681" ry="5.12552" fill="black"/>
<ellipse cx="93.2576" cy="89.9295" rx="4.99681" ry="5.12552" fill="black"/>
<path d="M65.4126 99.7151C71.9236 109.966 73.1349 109.5 83.5828 99.7151" stroke="black" stroke-width="3"/>
</svg>
