<svg width="169" height="240" viewBox="0 0 169 240" fill="none" xmlns="http://www.w3.org/2000/svg">
<path d="M139.981 43.9539L139.905 43.7798L139.797 43.6232C137.182 39.8312 132.398 34.1363 126.452 29.2362C120.542 24.3657 113.24 20.0778 105.611 19.5111C98.2396 18.9634 89.4024 20.636 81.4729 22.8643C73.5378 25.0942 66.3164 27.9375 62.0404 29.9008C54.0231 33.0699 42.8638 42.2908 39.8211 59.8082C38.3636 68.1987 37.7246 72.6018 37.6749 77.1686C37.635 80.8449 37.9798 84.6227 38.5317 90.6689C38.6576 92.0478 38.7942 93.5448 38.9395 95.1854C39.4684 101.157 39.3044 111.074 37.0687 121.226C34.827 131.406 30.5608 141.56 23.0935 148.309C14.7131 155.883 10.1188 167.926 8.04232 179.23C5.96932 190.514 6.31124 201.595 8.28798 207.525C10.2821 213.507 16.0708 220.952 23.5995 226.84C31.1549 232.749 40.8086 237.362 50.743 237.231C62.6255 237.074 80.1936 234.056 96.3574 229.612C104.454 227.385 112.251 224.787 118.853 221.982C125.35 219.221 130.858 216.192 134.322 213.013C135.481 212.169 136.769 210.842 138.111 209.225C139.519 207.528 141.067 205.413 142.687 202.977C145.927 198.104 149.502 191.872 152.861 184.983C159.554 171.26 165.525 154.662 166.137 140.854C166.747 127.086 162.443 108.009 156.937 89.9438C151.41 71.8109 144.587 54.4343 139.981 43.9539Z" fill="white" stroke="#F5F5F5" stroke-width="4"/>
<path d="M32.9372 60.1433L32.2948 62.254L34.4583 62.6868C40.8535 63.9658 45.9947 62.0139 50.0454 58.6186C54.0169 55.2897 56.9475 50.5777 59.1828 46.2231C60.3084 44.0304 61.28 41.8823 62.1238 39.9983C62.1906 39.8492 62.2564 39.7021 62.3213 39.557C63.09 37.8393 63.73 36.4092 64.3033 35.3247C64.364 35.2097 64.4226 35.1013 64.4792 34.9993C66.6236 39.6349 70.1362 46.2847 73.4978 51.3786C75.2623 54.0524 77.092 56.4644 78.7408 57.8914C79.5226 58.5681 80.5547 59.286 81.7288 59.4184C82.3833 59.4922 83.0851 59.3826 83.7295 58.9929C84.3508 58.6173 84.7689 58.0724 85.0486 57.5256C86.9167 53.8744 87.7381 49.4895 88.0505 45.2496C88.3645 40.9878 88.1734 36.7214 87.9184 33.2309C87.8513 32.3121 87.7791 31.4384 87.7101 30.6321C87.9105 30.7695 88.116 30.9005 88.3255 31.0254C89.6663 31.8249 91.2866 32.4466 93.0541 32.9293C96.5888 33.8947 100.979 34.3753 105.554 34.4628C114.669 34.637 125.016 33.2566 131.527 30.6043L135.805 28.8615L131.606 26.9345C130.698 26.5173 129.599 25.9867 128.333 25.3755C123.3 22.9454 115.633 19.2428 106.81 16.3462C95.7663 12.7201 82.6071 10.2414 70.0353 13.0986C57.2102 16.0134 48.72 25.3423 43.0918 34.9957C37.7929 44.0842 34.8792 53.722 33.2312 59.1729C33.1284 59.5131 33.0305 59.8369 32.9372 60.1433Z" fill="white" stroke="#F5F5F5" stroke-width="4"/>
<path d="M62.621 4.90403L60.3363 5.55679L61.3693 7.69657L67.7641 20.9429L68.3098 22.0734H69.5652H74.1329H76.8287L76.0469 19.4934L71.4792 4.41999L70.9084 2.5362L69.0157 3.07695L62.621 4.90403Z" fill="white" stroke="#F5F5F5" stroke-width="4"/>
<circle cx="63.627" cy="93.1563" r="5.02446" fill="#F5F5F5"/>
<circle cx="93.7735" cy="93.1563" r="5.02446" fill="#F5F5F5"/>
<path d="M65.7749 102.749C72.3219 112.797 73.54 112.341 84.0457 102.749" stroke="#F5F5F5" stroke-width="4"/>
</svg>
