<svg width="168" height="237" viewBox="0 0 168 237" fill="none" xmlns="http://www.w3.org/2000/svg">
<path d="M139.192 42.7265L139.116 42.5524L139.008 42.3959C136.407 38.6248 131.65 32.9616 125.737 28.0887C119.86 23.2455 112.597 18.9803 105.009 18.4165C97.6773 17.8719 88.889 19.5353 81.0044 21.751C73.1142 23.9683 65.9337 26.7955 61.6815 28.7478C53.7067 31.9002 42.6084 41.0715 39.5823 58.4929C38.1332 66.8354 37.4977 71.2142 37.4483 75.756C37.4086 79.4119 37.7515 83.1688 38.3003 89.1805C38.4254 90.5515 38.5613 92.0399 38.7057 93.671C39.2315 99.6072 39.0685 109.466 36.8458 119.56C34.6172 129.68 30.3761 139.774 22.9539 146.482C14.6187 154.015 10.05 165.992 7.98515 177.232C5.92381 188.453 6.2635 199.473 8.2298 205.371C10.2134 211.322 15.9709 218.727 23.4577 224.582C30.9711 230.458 40.5721 235.046 50.4533 234.916C62.2692 234.759 79.7381 231.759 95.81 227.339C103.861 225.126 111.614 222.542 118.179 219.752C124.638 217.008 130.116 213.995 133.562 210.833C134.715 209.994 135.997 208.673 137.331 207.065C138.731 205.378 140.271 203.275 141.881 200.852C145.103 196.006 148.658 189.81 151.999 182.96C158.654 169.314 164.591 152.81 165.199 139.079C165.806 125.387 161.526 106.417 156.051 88.455C150.556 70.4252 143.772 53.1474 139.192 42.7265Z" fill="#635CA5" stroke="white" stroke-width="4"/>
<path d="M33.2164 58.9704L32.7346 60.5534L34.3572 60.878C40.5483 62.1162 45.5131 60.2339 49.4455 56.9377C53.3185 53.6913 56.1964 49.0764 58.41 44.7643C59.5226 42.5967 60.4841 40.4713 61.3229 38.5985C61.3901 38.4485 61.4563 38.3004 61.5217 38.1543C62.283 36.453 62.926 35.0162 63.5039 33.9229C63.7551 33.4476 63.9768 33.071 64.1718 32.7851C66.2418 37.3832 69.9512 44.4885 73.4856 49.8444C75.237 52.4983 77.0255 54.8478 78.6106 56.2197C79.3712 56.878 80.3026 57.5075 81.3165 57.6218C81.8741 57.6847 82.4611 57.591 82.9983 57.2662C83.5181 56.9519 83.8786 56.4896 84.1277 56.0029C85.9427 52.4554 86.7517 48.1695 87.0601 43.9836C87.3697 39.7812 87.1817 35.5668 86.9288 32.105C86.836 30.834 86.7334 29.652 86.6432 28.613C86.6375 28.5473 86.6318 28.4823 86.6262 28.4178C87.064 28.8022 87.5516 29.1472 88.071 29.4569C89.3541 30.2219 90.9202 30.8255 92.6512 31.2983C96.1129 32.2438 100.434 32.7193 104.961 32.8058C113.986 32.9784 124.202 31.6083 130.591 29.0054L133.799 27.6983L130.651 26.253C129.738 25.8341 128.638 25.303 127.374 24.6926C122.368 22.2754 114.784 18.6138 106.048 15.7453C95.1025 12.1517 82.1181 9.71617 69.7434 12.5286C57.1788 15.3842 48.8306 24.5288 43.2676 34.0703C38.029 43.0552 35.1466 52.5885 33.5076 58.009C33.4058 58.3457 33.3088 58.6665 33.2164 58.9704Z" fill="#34A853" stroke="white" stroke-width="3"/>
<path d="M62.396 4.37435L60.6825 4.86392L61.4573 6.46876L67.8155 19.6394L68.2248 20.4873H69.1663H73.7079H75.7298L75.1435 18.5523L70.6019 3.56499L70.1737 2.15215L68.7543 2.55771L62.396 4.37435Z" fill="#34A853" stroke="white" stroke-width="3"/>
<circle cx="63.2633" cy="91.6525" r="4.99576" fill="white"/>
<circle cx="93.2375" cy="91.6525" r="4.99576" fill="white"/>
<path d="M65.3994 101.189C71.909 111.181 73.1201 110.727 83.5658 101.189" stroke="white" stroke-width="3"/>
</svg>
