<svg width="185" height="262" viewBox="0 0 185 262" fill="none" xmlns="http://www.w3.org/2000/svg">
<path d="M153.059 47.7209L152.982 47.5468L152.875 47.3902C150.021 43.2519 144.796 37.0312 138.302 31.6796C131.844 26.3576 123.887 21.6924 115.594 21.0761C107.558 20.4789 97.9095 22.3024 89.2361 24.7396C80.5573 27.1784 72.6593 30.2884 67.9875 32.4336C59.266 35.879 47.0963 45.9222 43.7778 65.0299C42.1824 74.2156 41.4858 79.0214 41.4317 84.0033C41.3882 88.0171 41.7646 92.1405 42.3688 98.7581C42.5067 100.268 42.6564 101.909 42.8157 103.707C43.3963 110.261 43.2164 121.136 40.7648 132.27C38.3071 143.432 33.625 154.591 25.4093 162.016C16.2807 170.267 11.263 183.401 8.99345 195.757C6.72739 208.094 7.1066 220.188 9.25644 226.637C11.4236 233.138 17.7306 241.26 25.9549 247.692C34.2057 254.145 44.7322 259.169 55.5488 259.027C68.534 258.855 87.748 255.557 105.433 250.694C114.291 248.259 122.817 245.417 130.034 242.35C137.145 239.329 143.154 236.021 146.921 232.561C148.172 231.652 149.574 230.21 151.043 228.44C152.579 226.589 154.27 224.28 156.04 221.617C159.582 216.29 163.49 209.476 167.165 201.942C174.487 186.927 181.009 168.787 181.677 153.71C182.342 138.674 177.64 117.818 171.613 98.0438C165.565 78.2024 158.099 59.1876 153.059 47.7209Z" fill="#E4D6FF" stroke="black" stroke-width="4"/>
<path d="M36.2356 65.4183L35.5932 67.529L37.7567 67.9618C44.6922 69.349 50.2631 67.2349 54.6604 63.549C58.9785 59.9296 62.1725 54.7987 64.6159 50.0387C65.8456 47.6433 66.9074 45.2959 67.831 43.2337C67.9044 43.0698 67.9767 42.9081 68.0481 42.7486C68.8884 40.8708 69.5916 39.2995 70.2221 38.1066C70.3568 37.8518 70.4826 37.6251 70.5999 37.425C72.9274 42.5031 76.8572 49.9741 80.6124 55.6645C82.5427 58.5896 84.5337 61.2111 86.3175 62.755C87.1668 63.49 88.2598 64.2433 89.4856 64.3815C90.166 64.4582 90.8913 64.3441 91.5566 63.9419C92.1988 63.5536 92.635 62.988 92.93 62.4115C94.9585 58.4467 95.8546 53.6754 96.1957 49.0457C96.5385 44.394 96.33 39.7344 96.0512 35.9169C95.9663 34.7547 95.874 33.6592 95.7882 32.6665C96.106 32.9018 96.4389 33.1213 96.7825 33.3262C98.2309 34.1898 99.9871 34.8646 101.912 35.3903C105.761 36.4415 110.549 36.9667 115.549 37.0623C125.512 37.2528 136.811 35.7426 143.905 32.8525L148.182 31.1097L143.984 29.1827C142.986 28.7244 141.78 28.1422 140.393 27.4721C134.883 24.8116 126.505 20.7662 116.861 17.5998C104.786 13.635 90.4193 10.9329 76.7061 14.0496C62.7395 17.2238 53.4819 27.3851 47.3338 37.9303C41.545 47.8592 38.3611 58.3902 36.557 64.3574C36.4446 64.7292 36.3376 65.0832 36.2356 65.4183Z" fill="#65FB76" stroke="black" stroke-width="4"/>
<path d="M68.6 5.07699L66.3153 5.72975L67.3483 7.86953L74.3484 22.3698L74.8941 23.5003H76.1495H81.1495H83.8454L83.0636 20.9203L78.0635 4.41999L77.4927 2.53619L75.6 3.07695L68.6 5.07699Z" fill="#65FB76" stroke="black" stroke-width="4"/>
<ellipse cx="69.6495" cy="101.502" rx="5.50006" ry="5.50011" fill="black"/>
<ellipse cx="102.65" cy="101.502" rx="5.50006" ry="5.50011" fill="black"/>
<path d="M72.0005 112.002C79.1672 123.002 80.5006 122.502 92.0007 112.002" stroke="black" stroke-width="3"/>
</svg>
