<svg width="73" height="102" viewBox="0 0 73 102" fill="none" xmlns="http://www.w3.org/2000/svg">
<path d="M18.0607 24.2091C19.3236 16.8326 23.9397 13.0169 27.1548 11.7342C30.7694 10.0447 39.516 6.77965 45.5853 7.23633C51.6546 7.69302 57.5319 14.2306 59.7119 17.4423C63.6682 26.5896 71.4518 47.8257 70.9361 59.591C70.4203 71.3564 60.8513 88.2243 57.4944 90.6316C51.9652 95.8468 31.9728 100.938 21.9022 101.076C13.8457 101.186 5.96423 93.4505 4.38579 88.6378C2.80723 83.8251 3.71353 69.8438 10.5501 63.5675C17.3866 57.2913 18.1558 44.9164 17.6858 39.5135C17.6222 38.7819 17.5627 38.1178 17.5082 37.5089C16.9788 31.6001 16.9157 30.8965 18.0607 24.2091Z" fill="#E4D6FF"/>
<path d="M18.0607 24.2091C19.3236 16.8326 23.9397 13.0169 27.1548 11.7342C30.7694 10.0447 39.516 6.77965 45.5853 7.23633C51.6546 7.69302 57.5319 14.2306 59.7119 17.4423C63.6682 26.5896 71.4518 47.8257 70.9361 59.591C70.4203 71.3564 60.8513 88.2243 57.4944 90.6316C51.9652 95.8468 31.9728 100.938 21.9022 101.076C13.8457 101.186 5.96423 93.4505 4.38579 88.6378C2.80723 83.8251 3.71353 69.8438 10.5501 63.5675C17.3866 57.2913 18.1558 44.9164 17.6858 39.5135C17.6222 38.7819 17.5627 38.1178 17.5082 37.5089C16.9788 31.6001 16.9157 30.8965 18.0607 24.2091Z" stroke="white"/>
<path d="M30.4638 4.41159C20.3397 6.74863 16.6587 19.1099 15.1889 24.0456C15.1453 24.1921 15.1036 24.3321 15.0637 24.4651C21.3355 25.7392 24.3399 18.919 26.1528 14.8036C27.1934 12.4414 27.8414 10.9703 28.4894 12.433C30.2663 16.4437 34.8808 24.8662 35.992 22.6603C37.7253 19.2192 37.2692 13.8825 37.0167 10.929C36.8425 8.89105 36.7653 7.98788 37.5715 9.62545C39.151 12.834 51.1946 12.6336 56.5254 10.4277C56.1165 10.2371 55.6287 9.99798 55.0714 9.7247C50.1559 7.31464 39.8267 2.25023 30.4638 4.41159Z" fill="#65FB76"/>
<path d="M30.4638 4.41159C20.3397 6.74863 16.6587 19.1099 15.1889 24.0456C15.1453 24.1921 15.1036 24.3321 15.0637 24.4651C21.3355 25.7392 24.3399 18.919 26.1528 14.8036C27.1934 12.4414 27.8414 10.9703 28.4894 12.433C30.2663 16.4437 34.8808 24.8662 35.992 22.6603C37.7253 19.2192 37.2692 13.8825 37.0167 10.929C36.8425 8.89105 36.7653 7.98788 37.5715 9.62545C39.151 12.834 51.1946 12.6336 56.5254 10.4277C56.1165 10.2371 55.6287 9.99798 55.0714 9.7247C50.1559 7.31464 39.8267 2.25023 30.4638 4.41159Z" stroke="white"/>
<path d="M27.3047 0.802145L30.0688 6.6177H32.0432L30.0688 0L27.3047 0.802145Z" fill="#65FB76"/>
<path d="M27.3047 0.802145L30.0688 6.6177H32.0432L30.0688 0L27.3047 0.802145Z" stroke="white"/>
<ellipse cx="27.5021" cy="38.7035" rx="2.1718" ry="2.2059" fill="black"/>
<ellipse cx="40.5331" cy="38.7035" rx="2.1718" ry="2.2059" fill="black"/>
<path d="M28.4307 42.9148C31.2606 47.3266 31.7871 47.1261 36.3281 42.9148" stroke="black" stroke-width="3"/>
</svg>
