<svg width="20" height="20" viewBox="0 0 20 20" fill="none" xmlns="http://www.w3.org/2000/svg">
<path d="M14 6.6665C15.3807 6.6665 16.5 5.54722 16.5 4.1665C16.5 2.78579 15.3807 1.6665 14 1.6665C12.6193 1.6665 11.5 2.78579 11.5 4.1665C11.5 5.54722 12.6193 6.6665 14 6.6665Z" stroke="#E4D6FF" stroke-width="1.5" stroke-linecap="round" stroke-linejoin="round"/>
<path d="M4 12.5C5.38071 12.5 6.5 11.3807 6.5 10C6.5 8.61929 5.38071 7.5 4 7.5C2.61929 7.5 1.5 8.61929 1.5 10C1.5 11.3807 2.61929 12.5 4 12.5Z" stroke="#E4D6FF" stroke-width="1.5" stroke-linecap="round" stroke-linejoin="round"/>
<path d="M14 18.3335C15.3807 18.3335 16.5 17.2142 16.5 15.8335C16.5 14.4528 15.3807 13.3335 14 13.3335C12.6193 13.3335 11.5 14.4528 11.5 15.8335C11.5 17.2142 12.6193 18.3335 14 18.3335Z" stroke="#E4D6FF" stroke-width="1.5" stroke-linecap="round" stroke-linejoin="round"/>
<path d="M6.15833 11.2583L11.85 14.575" stroke="#E4D6FF" stroke-width="1.5" stroke-linecap="round" stroke-linejoin="round"/>
<path d="M11.8417 5.4248L6.15833 8.74147" stroke="#E4D6FF" stroke-width="1.5" stroke-linecap="round" stroke-linejoin="round"/>
</svg>
