<svg width="20" height="20" viewBox="0 0 20 20" fill="none" xmlns="http://www.w3.org/2000/svg">
<g filter="url(#filter0_d_138_2680)">
<path d="M14.8147 13.3332C15.3772 13.3332 15.8332 12.8772 15.8332 12.3147V5.18502C15.8332 4.62251 15.3772 4.1665 14.8147 4.1665H7.68502C7.12251 4.1665 6.6665 4.62251 6.6665 5.18502" stroke="white" stroke-linecap="round" stroke-linejoin="round"/>
</g>
<g filter="url(#filter1_d_138_2680)">
<path d="M12.3147 6.6665H5.18502C4.62251 6.6665 4.1665 7.12251 4.1665 7.68502V14.8147C4.1665 15.3772 4.62251 15.8332 5.18502 15.8332H12.3147C12.8772 15.8332 13.3332 15.3772 13.3332 14.8147V7.68502C13.3332 7.12251 12.8772 6.6665 12.3147 6.6665Z" fill="white"/>
<path d="M12.3147 6.6665H5.18502C4.62251 6.6665 4.1665 7.12251 4.1665 7.68502V14.8147C4.1665 15.3772 4.62251 15.8332 5.18502 15.8332H12.3147C12.8772 15.8332 13.3332 15.3772 13.3332 14.8147V7.68502C13.3332 7.12251 12.8772 6.6665 12.3147 6.6665Z" stroke="white" stroke-linecap="round" stroke-linejoin="round"/>
</g>
<defs>
<filter id="filter0_d_138_2680" x="4.1665" y="1.6665" width="14.1665" height="14.1665" filterUnits="userSpaceOnUse" color-interpolation-filters="sRGB">
<feFlood flood-opacity="0" result="BackgroundImageFix"/>
<feColorMatrix in="SourceAlpha" type="matrix" values="0 0 0 0 0 0 0 0 0 0 0 0 0 0 0 0 0 0 127 0" result="hardAlpha"/>
<feOffset/>
<feGaussianBlur stdDeviation="1"/>
<feComposite in2="hardAlpha" operator="out"/>
<feColorMatrix type="matrix" values="0 0 0 0 0 0 0 0 0 0 0 0 0 0 0 0 0 0 0.5 0"/>
<feBlend mode="normal" in2="BackgroundImageFix" result="effect1_dropShadow_138_2680"/>
<feBlend mode="normal" in="SourceGraphic" in2="effect1_dropShadow_138_2680" result="shape"/>
</filter>
<filter id="filter1_d_138_2680" x="1.6665" y="4.1665" width="14.1665" height="14.1665" filterUnits="userSpaceOnUse" color-interpolation-filters="sRGB">
<feFlood flood-opacity="0" result="BackgroundImageFix"/>
<feColorMatrix in="SourceAlpha" type="matrix" values="0 0 0 0 0 0 0 0 0 0 0 0 0 0 0 0 0 0 127 0" result="hardAlpha"/>
<feOffset/>
<feGaussianBlur stdDeviation="1"/>
<feComposite in2="hardAlpha" operator="out"/>
<feColorMatrix type="matrix" values="0 0 0 0 0 0 0 0 0 0 0 0 0 0 0 0 0 0 0.5 0"/>
<feBlend mode="normal" in2="BackgroundImageFix" result="effect1_dropShadow_138_2680"/>
<feBlend mode="normal" in="SourceGraphic" in2="effect1_dropShadow_138_2680" result="shape"/>
</filter>
</defs>
</svg>
