<svg width="223" height="240" viewBox="0 0 223 240" fill="none" xmlns="http://www.w3.org/2000/svg">
<path d="M140.919 43.9539L140.842 43.7798L140.734 43.6232C138.12 39.8312 133.336 34.1363 127.39 29.2362C121.48 24.3657 114.177 20.0778 106.549 19.5111C99.1771 18.9634 90.3399 20.636 82.4104 22.8643C74.4753 25.0942 67.2539 27.9375 62.9779 29.9008C54.9606 33.0699 43.8013 42.2908 40.7586 59.8082C39.3011 68.1987 38.6621 72.6018 38.6124 77.1686C38.5725 80.8449 38.9173 84.6227 39.4692 90.6689C39.5951 92.0478 39.7317 93.5448 39.877 95.1854C40.4059 101.157 40.2419 111.074 38.0062 121.226C35.7645 131.406 31.4983 141.56 24.031 148.309C15.6506 155.883 11.0563 167.926 8.97982 179.23C6.90682 190.514 7.24874 201.595 9.22548 207.525C11.2196 213.507 17.0083 220.952 24.537 226.84C32.0924 232.749 41.7461 237.362 51.6805 237.231C63.563 237.074 81.1311 234.056 97.2949 229.612C105.392 227.385 113.189 224.787 119.791 221.982C126.287 219.221 131.795 216.192 135.259 213.013C136.418 212.169 137.707 210.842 139.049 209.225C140.457 207.528 142.005 205.413 143.624 202.977C146.865 198.104 150.439 191.872 153.799 184.983C160.492 171.26 166.462 154.662 167.074 140.854C167.684 127.086 163.381 108.009 157.874 89.9438C152.348 71.8109 145.525 54.4343 140.919 43.9539Z" fill="#DBDBDB" stroke="#F5F5F5" stroke-width="4"/>
<path d="M33.8747 60.1433L33.2323 62.254L35.3958 62.6868C41.791 63.9658 46.9322 62.0139 50.9829 58.6186C54.9544 55.2897 57.885 50.5777 60.1203 46.2231C61.2459 44.0304 62.2175 41.8823 63.0613 39.9983C63.1281 39.8492 63.1939 39.7021 63.2588 39.557C64.0275 37.8393 64.6675 36.4092 65.2408 35.3247C65.3015 35.2097 65.3601 35.1013 65.4167 34.9993C67.5611 39.6349 71.0737 46.2847 74.4353 51.3786C76.1998 54.0524 78.0295 56.4644 79.6783 57.8914C80.4601 58.5681 81.4922 59.286 82.6663 59.4184C83.3208 59.4922 84.0226 59.3826 84.667 58.9929C85.2883 58.6173 85.7064 58.0724 85.9861 57.5256C87.8542 53.8744 88.6756 49.4895 88.988 45.2496C89.302 40.9878 89.1109 36.7214 88.8559 33.2309C88.7888 32.3121 88.7166 31.4384 88.6476 30.6321C88.848 30.7695 89.0535 30.9005 89.263 31.0254C90.6038 31.8249 92.2241 32.4466 93.9916 32.9293C97.5263 33.8947 101.916 34.3753 106.492 34.4628C115.606 34.637 125.954 33.2566 132.464 30.6043L136.742 28.8615L132.544 26.9345C131.635 26.5173 130.536 25.9867 129.271 25.3755C124.238 22.9454 116.57 19.2428 107.748 16.3462C96.7038 12.7201 83.5446 10.2414 70.9728 13.0986C58.1477 16.0134 49.6575 25.3423 44.0293 34.9957C38.7304 44.0842 35.8167 53.722 34.1687 59.1729C34.0659 59.5131 33.968 59.8369 33.8747 60.1433Z" fill="#DBDBDB" stroke="#F5F5F5" stroke-width="4"/>
<path d="M63.5585 4.90403L61.2738 5.55679L62.3068 7.69657L68.7016 20.9429L69.2473 22.0734H70.5027H75.0704H77.7662L76.9844 19.4934L72.4167 4.41999L71.8459 2.5362L69.9532 3.07695L63.5585 4.90403Z" fill="#DBDBDB" stroke="#F5F5F5" stroke-width="4"/>
<circle cx="64.5645" cy="93.1563" r="5.02446" fill="#F5F5F5"/>
<circle cx="94.711" cy="93.1563" r="5.02446" fill="#F5F5F5"/>
<path d="M138.98 102.86V100.86H136.98H128.813H127.902L127.304 101.547C123.581 105.827 119.921 110.126 116.324 114.444C112.745 118.74 109.104 123.017 105.399 127.276L104.908 127.84V128.588V134.825V136.825H106.908H127.32V144.905V146.905H129.32H136.98H138.98V144.905V136.825H142.931H144.931V136.739C145.78 138.661 146.838 140.362 148.119 141.824L148.135 141.842L148.151 141.859C149.947 143.813 152.048 145.288 154.444 146.258L154.444 146.258L154.457 146.263C156.858 147.215 159.41 147.685 162.095 147.685C164.857 147.685 167.452 147.218 169.86 146.263C172.304 145.294 174.417 143.814 176.182 141.842C177.999 139.822 179.37 137.342 180.328 134.453L180.33 134.445C180.332 134.439 180.334 134.433 180.336 134.428V134.825V136.825H182.336H202.748V144.905V146.905H204.748H212.408H214.408V144.905V136.825H218.359H220.359V134.825V128.533V126.533H218.359H214.408V102.86V100.86H212.408H204.241H203.33L202.732 101.547C199.009 105.827 195.349 110.126 191.752 114.444C188.46 118.396 185.114 122.332 181.715 126.253C181.744 125.597 181.759 124.927 181.759 124.245C181.759 120.384 181.299 116.969 180.329 114.04C179.374 111.123 178.006 108.637 176.183 106.647C174.42 104.641 172.307 103.141 169.86 102.17C167.452 101.215 164.857 100.749 162.095 100.749C159.409 100.749 156.858 101.218 154.457 102.17L154.457 102.17L154.444 102.175C152.038 103.149 149.933 104.65 148.137 106.645L148.133 106.65C146.352 108.64 145.006 111.125 144.052 114.04C143.081 116.968 142.622 120.384 142.622 124.245C142.622 125.025 142.641 125.787 142.68 126.533H138.98V102.86ZM127.32 117.776V126.644H119.826L127.32 117.776ZM168.189 117.353L168.195 117.377L168.201 117.401C168.649 119.107 168.896 121.371 168.896 124.245C168.896 127.078 168.649 129.325 168.201 131.032L168.196 131.052L168.191 131.072C167.763 132.853 167.209 134.138 166.596 135.019C165.973 135.911 165.312 136.429 164.635 136.704L164.622 136.709L164.61 136.714C163.799 137.056 162.966 137.225 162.095 137.225C161.282 137.225 160.474 137.062 159.659 136.72C159.065 136.456 158.428 135.941 157.785 135.019C157.164 134.127 156.59 132.833 156.121 131.052C155.71 129.331 155.485 127.076 155.485 124.245C155.485 121.371 155.711 119.097 156.122 117.377C156.593 115.553 157.165 114.277 157.767 113.44L157.776 113.427L157.785 113.415C158.433 112.486 159.074 111.97 159.672 111.707L159.685 111.702L159.698 111.696C160.508 111.325 161.301 111.153 162.095 111.153C162.943 111.153 163.757 111.33 164.556 111.696L164.595 111.714L164.635 111.73C165.312 112.005 165.973 112.522 166.596 113.415L166.604 113.427L166.613 113.44C167.207 114.265 167.759 115.53 168.189 117.353ZM195.254 126.644L202.748 117.776V126.644H195.254Z" fill="white" stroke="#DBDBDB" stroke-width="4"/>
<path d="M120.663 60.7256C120.465 62.5527 120.722 66.2068 123.334 66.2068C125.945 66.2068 126.301 62.5527 126.005 60.7256" stroke="white" stroke-width="4" stroke-linecap="round"/>
<path d="M132.539 68.9478C132.341 70.7748 132.598 74.429 135.21 74.429C137.821 74.429 138.177 70.7748 137.881 68.9478" stroke="white" stroke-width="4" stroke-linecap="round"/>
<path d="M73.1438 144.5L70.9401 102.5H84.7786L82.5749 144.5H73.1438Z" fill="#DBDBDB" stroke="#F5F5F5" stroke-width="3"/>
</svg>
